<?xml version="1.0" encoding="UTF-8" standalone="no"?>
<!-- Created with Inkscape (http://www.inkscape.org/) -->

<svg
   width="56.962723mm"
   height="6.3246031mm"
   viewBox="0 0 56.962723 6.3246031"
   version="1.1"
   id="svg1"
   inkscape:version="1.4.2 (ebf0e940, 2025-05-08)"
   sodipodi:docname="ragnerock-logo.svg"
   xml:space="preserve"
   xmlns:inkscape="http://www.inkscape.org/namespaces/inkscape"
   xmlns:sodipodi="http://sodipodi.sourceforge.net/DTD/sodipodi-0.dtd"
   xmlns="http://www.w3.org/2000/svg"
   xmlns:svg="http://www.w3.org/2000/svg"><sodipodi:namedview
     id="namedview1"
     pagecolor="#505050"
     bordercolor="#ffffff"
     borderopacity="1"
     inkscape:showpageshadow="0"
     inkscape:pageopacity="0"
     inkscape:pagecheckerboard="1"
     inkscape:deskcolor="#505050"
     inkscape:document-units="mm"
     inkscape:zoom="3.5954826"
     inkscape:cx="123.0711"
     inkscape:cy="11.820388"
     inkscape:window-width="2592"
     inkscape:window-height="1366"
     inkscape:window-x="34"
     inkscape:window-y="126"
     inkscape:window-maximized="0"
     inkscape:current-layer="layer1" /><defs
     id="defs1" /><g
     inkscape:label="Layer 1"
     inkscape:groupmode="layer"
     id="layer1"
     transform="translate(-1.8210379,-2.8018184)"><path
       id="text1-0-8"
       style="font-weight:bold;font-size:8.46667px;font-family:'Helvetica Neue';-inkscape-font-specification:'Helvetica Neue Bold';fill:#3b7ef0;stroke-width:0.265"
       d="m 4.1482889,2.9224284 v 0.720887 l 1.481047,2.303735 -1.481047,2.300635 v 0.719852 h 1.329118 v -2.362129 h 1.329118 c 0.333023,0 0.573098,0.073388 0.719853,0.220141 0.146756,0.146756 0.242683,0.377926 0.287838,0.694015 0.03387,0.242711 0.059034,0.496938 0.075964,0.762227 0.01693,0.265289 0.062532,0.493835 0.135909,0.685746 h 1.329118 c -0.06209,-0.08467 -0.110309,-0.186357 -0.144178,-0.30489 -0.02822,-0.124178 -0.050766,-0.254174 -0.067696,-0.389641 -0.01129,-0.135467 -0.019671,-0.268085 -0.025321,-0.397908 -0.0057,-0.129822 -0.011433,-0.242526 -0.017053,-0.338481 -0.01129,-0.1524 -0.033826,-0.304935 -0.067696,-0.457336 -0.02822,-0.1524 -0.075928,-0.290785 -0.143661,-0.414962 -0.06773,-0.129823 -0.155271,-0.239902 -0.262516,-0.330213 -0.107244,-0.09596 -0.243005,-0.166201 -0.406694,-0.211356 v -0.017053 c 0.338667,-0.135467 0.581365,-0.333084 0.728121,-0.592729 0.1524,-0.259644 0.228927,-0.56734 0.228927,-0.922941 0,-0.231422 -0.042454,-0.445817 -0.127124,-0.643372 -0.07902,-0.203201 -0.19749,-0.3809 -0.355534,-0.5333 -0.1524,-0.1524 -0.338488,-0.270867 -0.558622,-0.355534 -0.214489,-0.09031 -0.457188,-0.135393 -0.728121,-0.135393 z m 1.329118,1.032496 h 1.456242 c 0.3048,0 0.533345,0.068135 0.685746,0.203605 0.1524,0.129823 0.22841,0.341075 0.22841,0.634586 0,0.3048 -0.07601,0.524958 -0.22841,0.660425 -0.152401,0.135467 -0.380946,0.203605 -0.685746,0.203605 h -1.456242 z m -1.329118,1.71204 v 0.559656 l 0.183452,-0.27957 z" /><path
       style="font-weight:bold;font-size:8.46667px;font-family:'Helvetica Neue';-inkscape-font-specification:'Helvetica Neue Bold';fill:#3b7ef0;stroke-width:0.265"
       d="m 11.768336,6.6541534 0.787401,-2.218268 h 0.01693 l 0.762,2.218268 z m 0.127001,-3.708402 -2.2860011,6.045203 h 1.3377331 l 0.474134,-1.346201 h 2.260601 l 0.4572,1.346201 h 1.380067 L 13.25847,2.9457514 Z m 8.517466,5.359403 0.135467,0.6858 h 0.846667 v -3.268135 h -2.540001 v 0.990601 h 1.337734 c -0.03951,0.423333 -0.180625,0.747889 -0.423334,0.973667 -0.237067,0.220133 -0.575733,0.3302 -1.016,0.3302 -0.299156,0 -0.553156,-0.05645 -0.762001,-0.169334 -0.208844,-0.118533 -0.378177,-0.273755 -0.508,-0.465666 -0.129822,-0.191911 -0.225778,-0.4064 -0.287867,-0.643467 -0.05645,-0.242711 -0.08467,-0.491067 -0.08467,-0.745067 0,-0.265289 0.02822,-0.522112 0.08467,-0.770467 0.06209,-0.248356 0.158042,-0.46849 0.287867,-0.660401 0.129823,-0.197555 0.299156,-0.352778 0.508,-0.465667 0.208845,-0.118533 0.462845,-0.1778 0.762001,-0.1778 0.321733,0 0.595489,0.08467 0.821267,0.254 0.225778,0.169334 0.378178,0.423334 0.4572,0.762001 h 1.27 c -0.03387,-0.344311 -0.127,-0.649112 -0.2794,-0.914401 -0.1524,-0.265289 -0.347133,-0.488244 -0.5842,-0.668867 -0.231422,-0.180622 -0.493889,-0.316089 -0.7874,-0.4064 -0.287867,-0.09596 -0.587022,-0.143933 -0.897467,-0.143933 -0.462845,0 -0.880534,0.08184 -1.253067,0.245533 -0.366889,0.163689 -0.677334,0.389467 -0.931334,0.677334 -0.254,0.287867 -0.448733,0.626533 -0.5842,1.016 -0.135467,0.383823 -0.2032,0.801512 -0.2032,1.253068 0,0.440267 0.06773,0.852311 0.2032,1.236133 0.135467,0.378178 0.3302,0.708378 0.5842,0.990601 0.254,0.282222 0.564445,0.505178 0.931334,0.668867 0.372533,0.158045 0.790222,0.237067 1.253067,0.237067 0.293511,0 0.5842,-0.05927 0.872067,-0.177801 0.287867,-0.124177 0.550333,-0.338666 0.7874,-0.643466 z m 2.057407,-5.359403 v 6.045203 h 1.2446 v -4.047068 h 0.01693 l 2.514601,4.047068 h 1.329267 v -6.045203 h -1.244601 v 4.055535 h -0.01693 L 23.79101,2.9457514 Z m 6.273796,0 v 6.045203 h 4.588935 v -1.117601 h -3.259668 v -1.481667 h 2.929468 v -1.032934 h -2.929468 v -1.2954 h 3.191935 v -1.117601 z m 6.815675,2.734735 v -1.701801 h 1.456268 c 0.304801,0 0.533402,0.06773 0.685802,0.2032 0.1524,0.129823 0.2286,0.34149 0.2286,0.635001 0,0.3048 -0.0762,0.524933 -0.2286,0.6604 -0.1524,0.135467 -0.381001,0.2032 -0.685802,0.2032 z m -1.329267,-2.734735 v 6.045203 h 1.329267 v -2.362201 h 1.329267 c 0.333022,0 0.57291,0.07338 0.719663,0.220133 0.14676,0.146756 0.242717,0.378178 0.28787,0.694267 0.03387,0.242711 0.05927,0.496712 0.0762,0.762001 0.01693,0.265289 0.06209,0.493889 0.13547,0.6858 h 1.32927 c -0.06207,-0.08467 -0.110047,-0.186267 -0.14394,-0.3048 -0.0282,-0.124178 -0.05077,-0.254 -0.0677,-0.389467 -0.01127,-0.135467 -0.01973,-0.268111 -0.0254,-0.397934 -0.0053,-0.129822 -0.01097,-0.242711 -0.0169,-0.338666 -0.01127,-0.1524 -0.03383,-0.3048 -0.0677,-0.457201 -0.0282,-0.1524 -0.07618,-0.290689 -0.14393,-0.414866 -0.06773,-0.129823 -0.155223,-0.23989 -0.26247,-0.330201 -0.10724,-0.09596 -0.242707,-0.166511 -0.4064,-0.211666 v -0.01693 c 0.338667,-0.135467 0.58138,-0.333022 0.72814,-0.592667 0.1524,-0.259644 0.2286,-0.567266 0.2286,-0.922867 0,-0.231422 -0.04233,-0.445911 -0.127,-0.643467 -0.07903,-0.2032 -0.19756,-0.381 -0.3556,-0.5334 -0.1524,-0.1524 -0.338667,-0.270933 -0.5588,-0.3556 -0.214493,-0.09031 -0.457207,-0.135467 -0.72814,-0.135467 z m 7.179737,3.048002 c 0,-0.265289 0.02823,-0.522112 0.0847,-0.770467 0.06207,-0.248356 0.158023,-0.46849 0.28787,-0.660401 0.12982,-0.197555 0.299153,-0.352778 0.508,-0.465667 0.208847,-0.118533 0.462847,-0.1778 0.762,-0.1778 0.299153,0 0.553153,0.05927 0.762,0.1778 0.208847,0.112889 0.37818,0.268112 0.508,0.465667 0.12982,0.191911 0.222953,0.412045 0.2794,0.660401 0.06207,0.248355 0.0931,0.505178 0.0931,0.770467 0,0.254 -0.03103,0.502356 -0.0931,0.745067 -0.05647,0.237067 -0.1496,0.451556 -0.2794,0.643467 -0.12982,0.191911 -0.299153,0.347133 -0.508,0.465666 -0.208847,0.112889 -0.462847,0.169334 -0.762,0.169334 -0.299153,0 -0.553153,-0.05645 -0.762,-0.169334 -0.208847,-0.118533 -0.37818,-0.273755 -0.508,-0.465666 -0.12982,-0.191911 -0.225777,-0.4064 -0.28787,-0.643467 -0.05647,-0.242711 -0.0847,-0.491067 -0.0847,-0.745067 z m -1.32927,0 c 0,0.440267 0.06773,0.852311 0.2032,1.236133 0.135467,0.378178 0.330203,0.708378 0.58421,0.990601 0.254,0.282222 0.564443,0.505178 0.93133,0.668867 0.372533,0.158045 0.790223,0.237067 1.25307,0.237067 0.468487,0 0.886173,-0.07902 1.25306,-0.237067 0.366893,-0.163689 0.67734,-0.386645 0.93134,-0.668867 0.254,-0.282223 0.448733,-0.612423 0.5842,-0.990601 0.135467,-0.383822 0.2032,-0.795866 0.2032,-1.236133 0,-0.451556 -0.06773,-0.869245 -0.2032,-1.253068 -0.135467,-0.389467 -0.3302,-0.728133 -0.5842,-1.016 -0.254,-0.287867 -0.564447,-0.513645 -0.93134,-0.677334 -0.366887,-0.163689 -0.784573,-0.245533 -1.25306,-0.245533 -0.462847,0 -0.880537,0.08184 -1.25307,0.245533 -0.366887,0.163689 -0.67733,0.389467 -0.93133,0.677334 -0.254007,0.287867 -0.448743,0.626533 -0.58421,1.016 -0.135467,0.383823 -0.2032,0.801512 -0.2032,1.253068 z m 10.87967,-1.016001 h 1.28694 c -0.03953,-0.349955 -0.13549,-0.6604 -0.28787,-0.931334 -0.1524,-0.270933 -0.347133,-0.496711 -0.5842,-0.677333 -0.23142,-0.186267 -0.49671,-0.327378 -0.79587,-0.423334 -0.293507,-0.09596 -0.606773,-0.143933 -0.9398,-0.143933 -0.46284,0 -0.880527,0.08184 -1.25306,0.245533 -0.366893,0.163689 -0.67734,0.389467 -0.93134,0.677334 -0.254,0.287867 -0.448733,0.626533 -0.5842,1.016 -0.135467,0.383823 -0.2032,0.801512 -0.2032,1.253068 0,0.440267 0.06773,0.852311 0.2032,1.236133 0.135467,0.378178 0.3302,0.708378 0.5842,0.990601 0.254,0.282222 0.564447,0.505178 0.93134,0.668867 0.372533,0.158045 0.79022,0.237067 1.25306,0.237067 0.372533,0 0.714023,-0.05645 1.02447,-0.169334 0.310447,-0.112889 0.58138,-0.276578 0.8128,-0.491067 0.23142,-0.214489 0.417687,-0.474133 0.5588,-0.778933 0.141113,-0.304801 0.228603,-0.64629 0.26247,-1.024467 h -1.28694 c -0.0508,0.4064 -0.19191,0.733778 -0.42333,0.982133 -0.22578,0.248356 -0.54187,0.372534 -0.94827,0.372534 -0.299153,0 -0.553153,-0.05645 -0.762,-0.169334 -0.20884,-0.118533 -0.378173,-0.273755 -0.508,-0.465666 -0.12982,-0.191911 -0.225773,-0.4064 -0.28786,-0.643467 -0.05647,-0.242711 -0.0847,-0.491067 -0.0847,-0.745067 0,-0.265289 0.02823,-0.522112 0.0847,-0.770467 0.06207,-0.248356 0.15802,-0.46849 0.28786,-0.660401 0.129827,-0.197555 0.29916,-0.352778 0.508,-0.465667 0.208847,-0.118533 0.462847,-0.1778 0.762,-0.1778 0.163693,0 0.318917,0.02822 0.46567,0.08467 0.1524,0.0508 0.287867,0.124178 0.4064,0.220134 0.118533,0.09596 0.21731,0.208844 0.29633,0.338667 0.07903,0.124177 0.129827,0.262466 0.1524,0.414866 z m 2.24366,-2.032001 v 6.045203 h 1.329279 v -1.947334 l 0.762,-0.770467 1.82034,2.717801 h 1.66793 l -2.5908,-3.657602 2.3622,-2.387601 h -1.65947 l -2.3622,2.506135 v -2.506135 z"
       id="text1-0-6-9"
       aria-label="❯RAGNEROCK"
       sodipodi:nodetypes="ccccccccccccccccccccccscscscccssccsccscscscscsccccccccccccccccccccccccccccccscssscccccsscsccccccccccccscccscscccscccscscscscsscscscscscssscscsccsccscscscscsssscccscscscccscscscccccccccccccc" /><path
       style="font-weight:bold;font-size:8.46667px;font-family:'Helvetica Neue';-inkscape-font-specification:'Helvetica Neue Bold';fill:#3b7ef0;stroke-width:0.259184"
       d="m 1.8210379,8.9673754 1.981256,-3.020403 -1.981256,-3.024448 h 1.334315 l 1.944865,3.024448 -1.944865,3.020403 z"
       id="text1-0-3"
       aria-label="❯RAGNEROCK"
       sodipodi:nodetypes="ccccccc" /></g></svg>
